<svg width="40" height="40" viewBox="0 0 40 40" fill="none" xmlns="http://www.w3.org/2000/svg">
<path d="M35.3188 10.1032L29.8968 4.68121C29.7859 4.56871 29.6375 4.50777 29.4796 4.50777C29.3234 4.50777 29.1734 4.56871 29.0624 4.68121L20.4108 13.3312L21.2467 14.1656L29.4795 5.93277L34.0656 10.5204L32.6312 11.9547L30.0328 9.35473C29.8015 9.12504 29.4296 9.12504 29.1984 9.35473C28.9671 9.58754 28.9671 9.95941 29.1984 10.1891L31.7968 12.7891L30.1531 14.4328L28.5124 12.7922C28.2812 12.5594 27.9093 12.5594 27.6781 12.7922C27.4468 13.0219 27.4468 13.3953 27.6781 13.6266L29.3187 15.2672L27.6749 16.911L25.0749 14.311C24.8437 14.0797 24.4718 14.0797 24.2406 14.311C24.0093 14.5422 24.0093 14.9141 24.2406 15.1453L26.8406 17.7453L25.8375 18.7484L26.6718 19.5828L35.3234 10.9328C35.5484 10.7078 35.5484 10.3344 35.3187 10.1031L35.3188 10.1032Z" fill="#4F46BA"/>
<path d="M17.7516 26.8344L15.1532 24.236C14.9219 24.0047 14.55 24.0047 14.3188 24.236C14.0876 24.4672 14.0876 24.8391 14.3188 25.0703L16.9172 27.6688L15.2735 29.3141L13.6328 27.6734C13.4016 27.4422 13.0282 27.4422 12.7969 27.6734C12.5657 27.9047 12.5657 28.2766 12.7969 28.5078L14.4376 30.1484L12.7938 31.7906L10.1954 29.1938C9.96412 28.9609 9.59068 28.9609 9.35944 29.1938C9.12819 29.4234 9.12819 29.7969 9.35944 30.0281L11.9579 32.6266L10.5235 34.0625L5.93752 29.4733L14.1687 21.2421L13.3344 20.4077L4.68436 29.0561C4.45311 29.2874 4.45311 29.6592 4.68436 29.8905L10.1064 35.3141C10.2173 35.4235 10.3657 35.4875 10.5236 35.4875C10.6798 35.4875 10.8298 35.4234 10.9408 35.3141L19.5908 26.6641L18.7548 25.8297L17.7516 26.8344Z" fill="#4F46BA"/>
<path d="M32.6752 27.2656L13.116 7.70639L11.8098 6.39703C10.8848 5.46891 9.30199 5.41267 8.44571 6.27203L6.27227 8.44703C5.38163 9.33767 5.43947 10.847 6.39883 11.808L27.266 32.6768C27.5379 32.9455 27.991 33.3924 32.9708 34.5205C33.074 34.5424 33.1771 34.5549 33.2802 34.5549C33.6271 34.5549 33.9505 34.4237 34.1896 34.183C34.4958 33.8736 34.6192 33.4221 34.5208 32.9737C33.3927 27.9845 32.9427 27.5345 32.6755 27.2657L32.6752 27.2656ZM7.23443 10.972C6.73287 10.472 6.67507 9.71263 7.1063 9.27979L9.27818 7.10791C9.46412 6.92041 9.72506 6.81729 10.0094 6.81729C10.3563 6.81729 10.7079 6.96885 10.9719 7.23293L11.8625 8.12357L8.12346 11.8627L7.23443 10.972ZM27.1156 29.3252C26.9094 29.2611 26.6844 29.3158 26.5313 29.4658C26.3781 29.6174 26.3172 29.8393 26.375 30.0471L26.4016 30.1424L8.95958 12.6972L12.7002 8.95809L30.0298 26.2909C29.8267 26.2378 29.6126 26.2909 29.4642 26.4362C29.3111 26.5878 29.2517 26.8096 29.3095 27.0143L29.6173 28.1237L28.5829 27.8081C28.3767 27.744 28.1517 27.8003 27.9986 27.9518C27.8439 28.1003 27.7845 28.3253 27.8423 28.5331L28.1501 29.6393L27.1156 29.3252ZM28.1 31.8408L27.8031 30.769L28.8312 31.0846C29.0406 31.1455 29.2719 31.0877 29.425 30.933C29.575 30.7815 29.6344 30.5611 29.575 30.3565L29.2687 29.2533L30.3 29.5674C30.5047 29.6315 30.7297 29.5752 30.8843 29.4237C31.0375 29.2752 31.0984 29.0518 31.0406 28.8455L30.7297 27.7252L31.764 28.0283L31.8421 28.1049C31.9265 28.1893 32.0765 28.4518 32.3078 29.1518L29.1547 32.308C28.4484 32.0721 28.1875 31.9252 28.1 31.8408ZM33.3516 33.3533C33.3375 33.3658 33.3125 33.3752 33.2828 33.3752L33.236 33.3674C32.0547 33.1018 31.1484 32.8752 30.4406 32.6846L32.6875 30.4377C32.8781 31.1439 33.1032 32.0502 33.3719 33.2299C33.3797 33.283 33.3719 33.3315 33.3516 33.3533Z" fill="#4F46BA"/>
</svg>
