<svg width="79" height="34" viewBox="0 0 79 34" fill="none" xmlns="http://www.w3.org/2000/svg">
<rect width="79" height="34" fill="#E5E5E5"/>
<path d="M62 34C71.3888 34 79 26.3888 79 17C79 7.61116 71.3888 0 62 0C52.6112 0 45 7.61116 45 17C45 26.3888 52.6112 34 62 34Z" fill="white"/>
<path d="M68 16L64 20M54 16H68H54ZM68 16L64 12L68 16Z" stroke="#453232" stroke-linecap="round" stroke-linejoin="round"/>
<path d="M17 34C26.3888 34 34 26.3888 34 17C34 7.61116 26.3888 0 17 0C7.61116 0 0 7.61116 0 17C0 26.3888 7.61116 34 17 34Z" fill="#3734A9"/>
<path d="M10 16L14 20M24 16H10H24ZM10 16L14 12L10 16Z" stroke="white" stroke-linecap="round" stroke-linejoin="round"/>
</svg>
