<svg width="21" height="20" viewBox="0 0 21 20" fill="none" xmlns="http://www.w3.org/2000/svg">
<path d="M9.39154 14.0989C9.44487 14.0539 9.49904 14.0072 9.54904 13.958C6.76487 16.6897 2.22487 15.4147 1.16071 11.5622V11.5564C-0.266793 6.31471 5.75237 2.33305 9.54737 5.99971C9.62654 6.08388 14.869 11.6747 14.5357 11.3189H14.5507C15.3332 12.1255 16.4649 12.0372 17.1382 11.3322C17.8624 10.5755 17.8882 9.34055 17.1774 8.57138C16.0549 7.27888 13.8507 8.24471 14.0615 10.1605L12.7999 8.87555L11.3365 7.47638C11.6382 6.87721 12.034 6.35305 12.5299 5.89971C12.4765 5.94555 12.4224 5.99305 12.3724 6.04055C15.1674 3.29888 19.704 4.60388 20.7607 8.43971V8.44471C22.1915 13.6855 16.1657 17.6672 12.374 14.0005C12.2965 13.9172 7.05737 8.29138 7.38904 8.64805L7.38571 8.63555C7.37237 8.63555 7.37237 8.62305 7.37237 8.62305C6.55071 7.77555 5.43654 7.90305 4.78487 8.59721C4.05987 9.35388 4.03487 10.5889 4.74737 11.3464C5.82071 12.6089 8.07237 11.673 7.86071 9.71888C7.94237 9.80305 10.7682 12.7039 10.5882 12.5197C10.1307 13.4322 9.61904 13.8514 9.39154 14.0989Z" fill="#3734A9"/>
</svg>
